<svg width="36" height="36" viewBox="0 0 36 36" fill="none" xmlns="http://www.w3.org/2000/svg">
	<circle cx="18" cy="18" r="18" fill="#F2FFDC" />
	<path d="M24.8967 23.2009C23.996 21.648 22.5978 20.4444 20.9282 19.7847C21.7476 19.1701 22.3529 18.3133 22.6583 17.3356C22.9637 16.3578 22.9538 15.3088 22.6299 14.3371C22.3059 13.3653 21.6845 12.5201 20.8535 11.9212C20.0226 11.3223 19.0242 11 17.9999 11C16.9756 11 15.9773 11.3223 15.1463 11.9212C14.3154 12.5201 13.6939 13.3653 13.37 14.3371C13.0461 15.3088 13.0361 16.3578 13.3415 17.3356C13.6469 18.3133 14.2522 19.1701 15.0717 19.7847C13.4021 20.4444 12.0038 21.648 11.1032 23.2009C11.001 23.3781 10.9733 23.5885 11.0263 23.786C11.0793 23.9835 11.2086 24.1519 11.3857 24.2541C11.5628 24.3563 11.7733 24.3839 11.9708 24.3309C12.1683 24.2779 12.3367 24.1487 12.4389 23.9715C13.0025 22.9954 13.8131 22.1848 14.7893 21.6213C15.7655 21.0577 16.8728 20.761 17.9999 20.761C19.1271 20.761 20.2344 21.0577 21.2106 21.6213C22.1867 22.1848 22.9974 22.9954 23.561 23.9715C23.6292 24.0883 23.7266 24.1853 23.8437 24.2529C23.9609 24.3204 24.0936 24.3563 24.2288 24.3568C24.3642 24.3579 24.4973 24.3224 24.6141 24.2541C24.7019 24.2035 24.7788 24.1362 24.8405 24.0559C24.9022 23.9756 24.9474 23.8839 24.9737 23.7861C24.9999 23.6883 25.0066 23.5863 24.9934 23.4859C24.9802 23.3854 24.9473 23.2886 24.8967 23.2009ZM14.6607 15.8804C14.6607 15.2199 14.8566 14.5743 15.2235 14.0252C15.5904 13.4761 16.1119 13.0481 16.7221 12.7954C17.3322 12.5426 18.0036 12.4765 18.6514 12.6053C19.2991 12.7342 19.8941 13.0522 20.3611 13.5192C20.8281 13.9862 21.1461 14.5812 21.275 15.2289C21.4038 15.8767 21.3377 16.5481 21.0849 17.1582C20.8322 17.7684 20.4042 18.2899 19.8551 18.6568C19.306 19.0237 18.6604 19.2196 17.9999 19.2196C17.1143 19.2196 16.265 18.8678 15.6387 18.2416C15.0125 17.6153 14.6607 16.766 14.6607 15.8804Z" fill="#474A54" />
  </svg>