<svg width="36" height="36" viewBox="0 0 36 36" fill="none" xmlns="http://www.w3.org/2000/svg">
	<circle cx="18" cy="18" r="18" fill="#F2FFDC" />
	<path d="M17.7552 23.625C17.9052 23.475 17.9837 23.2841 17.9908 23.0523C17.9973 22.8205 17.9256 22.6296 17.7756 22.4796L13.7665 18.4705H24.5461C24.7779 18.4705 24.9723 18.392 25.1294 18.2349C25.286 18.0783 25.3643 17.8841 25.3643 17.6523C25.3643 17.4205 25.286 17.226 25.1294 17.069C24.9723 16.9124 24.7779 16.8341 24.5461 16.8341H13.7665L17.7756 12.825C17.9256 12.675 17.9973 12.4841 17.9908 12.2523C17.9837 12.0205 17.9052 11.8296 17.7552 11.6796C17.6052 11.5296 17.4143 11.4546 17.1824 11.4546C16.9506 11.4546 16.7597 11.5296 16.6097 11.6796L11.2097 17.0796C11.1279 17.1478 11.0698 17.2329 11.0354 17.3349C11.0016 17.4374 10.9847 17.5432 10.9847 17.6523C10.9847 17.7614 11.0016 17.8637 11.0354 17.9591C11.0698 18.0546 11.1279 18.1432 11.2097 18.225L16.6097 23.625C16.7597 23.775 16.9506 23.85 17.1824 23.85C17.4143 23.85 17.6052 23.775 17.7552 23.625Z" fill="#474A54" />
  </svg>